<svg width="148" height="35" viewBox="0 0 148 35" fill="none" xmlns="http://www.w3.org/2000/svg">
<path d="M59.3148 20.081H66.6852V14H70V29H66.6852V22.7359H59.3148V29H56V14H59.3148V20.081V20.081Z" fill="white"/>
<path d="M76.349 22.8858C76.349 25.5077 77.1801 26.601 79.9808 26.601C82.7815 26.601 83.5952 25.5077 83.5952 22.8858V14H87V22.9659C87 24.867 86.773 26.1692 86.0571 26.9526C84.7336 28.4011 82.8024 29 79.9983 29C77.1941 29 75.2454 28.4011 73.9219 26.9526C73.1781 26.1518 73 24.8635 73 22.9659V14H76.3664L76.349 22.8858Z" fill="white"/>
<path fill-rule="evenodd" clip-rule="evenodd" d="M104 29L97.2426 14L93.7093 14.007L87 29H90.5334L91.9598 25.4313H98.834L100.291 29H104ZM97.7548 22.7529H93.0253L95.3488 16.9916L97.7548 22.7529Z" fill="white"/>
<path d="M105.63 14L109.344 25.5352L112.476 14H116.461L120.064 25.5352L123.53 14H127L122.032 29H117.89L114.465 17.8063L111.473 29H107.351L102 14H105.63V14Z" fill="white"/>
<path d="M131.769 20.0951H141V22.7042H131.749C131.769 25.4014 132.895 26.3838 135.525 26.3838H141V29H135.363C133.444 29 131.968 28.8556 130.424 27.6866C128.793 26.4542 128 24.4894 128 21.7711C128 16.4718 130.362 14 135.453 14H141V16.6162H135.508C133.105 16.6162 131.893 17.7394 131.759 20.1021" fill="white"/>
<rect x="144" y="14" width="4" height="15" fill="white"/>
<path d="M20.9451 26.9533C20.9967 26.9121 21.0141 26.8426 20.9879 26.7829V26.7829C17.45 19.381 13.0404 12.4064 7.84831 6C7.84831 6 3.71923 9.82677 4.01518 13.6535C4.15529 15.4389 5.01423 17.0974 6.4042 18.2665C10.0056 21.6898 18.7201 26.0071 20.7455 26.9916C20.7704 26.9951 20.8774 27.0229 20.9451 26.9533Z" fill="white"/>
<path d="M18.9936 30.1299C18.9664 30.0514 18.8957 29.9994 18.8169 30V30L5 30.5052C6.49785 33.3453 9.02485 35.5575 11.6537 34.8755C13.4641 34.3847 17.567 31.3461 18.9256 30.3176V30.3176C19.0309 30.2165 18.9936 30.1299 18.9936 30.1299Z" fill="white"/>
<path d="M18.9797 28.8802C19.0466 28.7685 18.9268 28.6707 18.9268 28.6707V28.6707C12.626 24.4576 0.412432 18 0.412432 18C-0.957705 22.2031 1.18869 26.7395 5.32749 28.388C6.20397 28.7296 7.13009 28.93 8.07062 28.9814C8.28569 29.0233 16.6032 28.9814 18.8316 28.9814C18.8949 28.9743 18.9505 28.9363 18.9797 28.8802Z" fill="white"/>
<path d="M20.2788 0C19.6575 0.0522968 17.9937 0.43232 17.9937 0.43232C15.7737 0.989873 14.0014 2.64732 13.3075 4.81479C12.6055 6.95896 13.3251 9.31231 13.3251 9.31231C14.5853 14.8906 20.7983 24.0147 22.1322 25.9322C22.227 26.0264 22.3042 25.995 22.3042 25.995C22.3858 25.9734 22.4403 25.8973 22.4341 25.8137V25.8137C24.4911 5.40749 20.2788 0 20.2788 0Z" fill="white"/>
<path d="M24.678 25.989C24.7575 26.0194 24.8473 25.9847 24.8851 25.9088V25.9088C26.258 23.9389 32.4304 14.8494 33.6909 9.30919C33.6909 9.30919 34.3721 6.62452 33.712 4.81149C33.007 2.63803 31.2187 0.982246 28.9861 0.435824C28.9861 0.435824 27.8941 0.16387 26.739 0C26.739 0 22.5046 5.41118 24.5656 25.8321V25.8321C24.5689 25.9018 24.6128 25.9631 24.678 25.989Z" fill="white"/>
<path d="M28.1613 30.0036C28.0947 30.0129 28.0364 30.0559 28.005 30.1189C27.9896 30.1895 28.0102 30.2634 28.0594 30.3136V30.3136C29.3808 31.3229 33.3924 34.2966 35.3252 34.8733C35.3252 34.8733 38.8987 36.1637 42 30.5082L28.1613 30V30.0036Z" fill="white"/>
<path d="M46.5926 18C46.5926 18 34.3937 24.4772 28.0825 28.6859V28.6859C28.0141 28.7305 27.9839 28.8145 28.0084 28.8918C28.0084 28.8918 28.0684 29 28.1566 29V29C30.4144 29 38.9621 29 39.1808 28.9721C40.0273 28.9078 40.8595 28.7196 41.6502 28.4137C43.712 27.6122 45.3721 26.0401 46.2716 24.0374C47.1163 22.1303 47.2304 19.9842 46.5926 18V18Z" fill="white"/>
<path d="M27.0652 26.9724C27.1239 27.0092 27.1993 27.0092 27.2581 26.9724V26.9724C29.3408 25.9665 38.0041 21.671 41.5945 18.2702C41.5945 18.2702 43.8666 16.4914 43.9881 13.6336C44.2488 9.66887 40.1548 6 40.1548 6C34.9664 12.3964 30.5581 19.3585 27.0187 26.7462V26.7462C26.9818 26.8234 27.0006 26.915 27.0652 26.9724Z" fill="white"/>
</svg>
