<svg width="153" height="28" viewBox="0 0 153 28" fill="none" xmlns="http://www.w3.org/2000/svg">
<path fill-rule="evenodd" clip-rule="evenodd" d="M45.5032 0L40.0897 3.15106V4.8709H47.1217V0H45.5032ZM144.796 6.55052C143.181 6.55052 141.236 6.71679 140.123 6.81201C139.676 6.85022 139.363 6.87699 139.258 6.87699V27.2619H143.745V20.3045C144.399 20.4135 145.062 20.4681 145.725 20.4677C149.847 20.4677 153 17.7259 153 13.5505C153 8.80264 149.525 6.55052 144.796 6.55052ZM145.2 16.6614C144.705 16.6729 144.211 16.5928 143.745 16.4248V10.6455C143.978 10.6053 144.756 10.6053 145.2 10.6053C147.18 10.6053 148.514 11.587 148.514 13.6333C148.514 15.5992 147.14 16.6614 145.2 16.6614ZM134.251 20.1081H129.926V23.1693H135.501V27.2619H125.519V6.79419H135.181V10.8821H129.926V16.1693H134.251V20.1081ZM113.599 16.8246V6.79419H109.195V27.2619H113.599V20.6381H114.407L119.58 27.2619H121.449V22.514C121.095 22.0261 120.697 21.4862 120.294 20.9409C119.684 20.1141 119.065 19.2746 118.578 18.5847C119.106 17.0328 119.823 14.7783 120.274 13.2217L122.173 6.79419H117.558L114.568 16.8222L113.599 16.8246ZM56.9444 17.028C56.9444 20.3045 59.5718 21.8185 61.1879 21.8185V12.2399C59.5671 12.2399 56.9444 13.7516 56.9444 17.028ZM44.9777 27.2643V21.4921L44.2608 21.4897L39.4919 27.2619H37.1074V6.79419H41.5447V9.9074C41.5447 12.0282 41.4234 15.6233 41.3393 18.1163L41.3393 18.1174L41.3392 18.1186L41.3111 18.9537H42.0375L44.9777 15.074V6.79419H49.415V27.2643H44.9777ZM2.87022 14.6151C2.87022 18.7077 2.33541 22.7601 0 23.6188V28C5.45553 27.4275 7.15337 22.5968 7.15337 15.391V10.4089H10.0633V27.2737H14.5006V6.79419H2.87022V14.6151ZM69.7518 17.0399C69.7518 13.7634 67.1245 12.2494 65.5084 12.2494V21.8185C67.1245 21.8185 69.7518 20.3163 69.7518 17.0399ZM65.5084 25.3907C70.3567 25.3907 74.2382 21.951 74.2382 17.0399C74.2382 12.1288 70.359 8.68908 65.5084 8.68908V5.89524H61.1879V8.67726C56.3395 8.67726 52.4581 12.1169 52.4581 17.028C52.4581 21.9392 56.3372 25.3788 61.1879 25.3788V27.8344H65.5084V25.3907ZM78.4699 6.79419C79.3691 8.43359 80.5718 10.6455 81.3892 12.292L82.2393 12.2802C82.971 10.7977 84.0341 8.84386 84.8891 7.27238L85.1492 6.79419H87.0876V12.4032L84.542 16.6614L87.4449 21.6151V27.2643H85.5042L82.2346 21.0426H81.3869L78.1173 27.2643H76.1765V21.6151L79.0748 16.6614L76.5292 12.4032V6.79419H78.4699ZM101.357 6.79419H94.4442L89.0283 27.2619H93.5544L94.4442 23.6566H101.357L102.247 27.2595H106.773L101.357 6.79419ZM95.4134 19.8952H100.383L98.2836 11.2582H97.4755L95.4134 19.8952ZM29.2581 6.79419H22.3476L16.9318 27.2619H21.4578L22.3476 23.6566H29.2581L30.1479 27.2595H34.6739L29.2581 6.79419ZM23.3168 19.8952H28.2889L26.187 11.2582H25.3789L23.3168 19.8952Z" fill="white"/>
</svg>
